<svg width="467" height="296" viewBox="0 0 467 296" fill="none" xmlns="http://www.w3.org/2000/svg">
<path d="M189.5 81L192.082 88.9463H200.437L193.678 93.8574L196.26 101.804L189.5 96.8926L182.74 101.804L185.322 93.8574L178.563 88.9463H186.918L189.5 81Z" fill="#D9D9D9"/>
<path d="M145.5 58L148.082 65.9463H156.437L149.678 70.8574L152.26 78.8037L145.5 73.8926L138.74 78.8037L141.322 70.8574L134.563 65.9463H142.918L145.5 58Z" fill="#D9D9D9"/>
<path d="M11.5 196L14.0819 203.946H22.4371L15.6776 208.857L18.2595 216.804L11.5 211.893L4.74047 216.804L7.32238 208.857L0.56285 203.946H8.91809L11.5 196Z" fill="#D9D9D9"/>
<path d="M331 206L333.919 214.983H343.364L335.723 220.534L338.641 229.517L331 223.966L323.359 229.517L326.277 220.534L318.636 214.983H328.081L331 206Z" fill="#D9D9D9"/>
<path d="M211 186L213.245 192.91H220.511L214.633 197.18L216.878 204.09L211 199.82L205.122 204.09L207.367 197.18L201.489 192.91H208.755L211 186Z" fill="#D9D9D9"/>
<path d="M85 276L87.2451 282.91H94.5106L88.6327 287.18L90.8779 294.09L85 289.82L79.1221 294.09L81.3673 287.18L75.4894 282.91H82.7549L85 276Z" fill="#D9D9D9"/>
<path d="M309 71L311.919 79.9828H321.364L313.723 85.5344L316.641 94.5172L309 88.9656L301.359 94.5172L304.277 85.5344L296.636 79.9828H306.081L309 71Z" fill="#D9D9D9"/>
<path d="M454 0L456.919 8.98278H466.364L458.723 14.5344L461.641 23.5172L454 17.9656L446.359 23.5172L449.277 14.5344L441.636 8.98278H451.081L454 0Z" fill="#D9D9D9"/>
</svg>
