<svg width="173" height="205" viewBox="0 0 173 205" fill="none" xmlns="http://www.w3.org/2000/svg">
<path d="M47.5 0L50.0819 7.9463H58.4371L51.6776 12.8574L54.2595 20.8037L47.5 15.8926L40.7405 20.8037L43.3224 12.8574L36.5628 7.9463H44.9181L47.5 0Z" fill="#D9D9D9"/>
<path d="M13 80L15.9187 88.9828H25.3637L17.7225 94.5344L20.6412 103.517L13 97.9656L5.35879 103.517L8.27747 94.5344L0.636266 88.9828H10.0813L13 80Z" fill="#D9D9D9"/>
<path d="M27 185L29.2451 191.91H36.5106L30.6327 196.18L32.8779 203.09L27 198.82L21.1221 203.09L23.3673 196.18L17.4894 191.91H24.7549L27 185Z" fill="#D9D9D9"/>
<path d="M160 23L162.919 31.9828H172.364L164.723 37.5344L167.641 46.5172L160 40.9656L152.359 46.5172L155.277 37.5344L147.636 31.9828H157.081L160 23Z" fill="#D9D9D9"/>
</svg>
